<?xml version="1.0" encoding="UTF-8" standalone="no"?>
<svg
   width="1945"
   height="1735.066"
   viewBox="0 0 256 228.33469"
   preserveAspectRatio="xMinYMin meet"
   version="1.1"
   id="svg4"
   sodipodi:docname="flask.svg"
   inkscape:version="1.1.1 (3bf5ae0d25, 2021-09-20)"
   xmlns:inkscape="http://www.inkscape.org/namespaces/inkscape"
   xmlns:sodipodi="http://sodipodi.sourceforge.net/DTD/sodipodi-0.dtd"
   xmlns="http://www.w3.org/2000/svg"
   xmlns:svg="http://www.w3.org/2000/svg">
  <defs
     id="defs8" />
  <sodipodi:namedview
     id="namedview6"
     pagecolor="#ffffff"
     bordercolor="#666666"
     borderopacity="1.0"
     inkscape:pageshadow="2"
     inkscape:pageopacity="0.0"
     inkscape:pagecheckerboard="0"
     showgrid="false"
     height="1735.066px"
     inkscape:zoom="0.3352"
     inkscape:cx="971.06205"
     inkscape:cy="535.50119"
     inkscape:window-width="1920"
     inkscape:window-height="1016"
     inkscape:window-x="0"
     inkscape:window-y="27"
     inkscape:window-maximized="1"
     inkscape:current-layer="svg4" />
  <path
     d="m 76.501192,203.35055 c -9.75,-7.67 -20.153,-15.02 -27.26,-25.377 -14.961,-18.264 -26.477,-39.405 -34.35,-61.625 -4.76,-14.45 -6.3899996,-29.940998 -12.5299996,-43.829998 -6.414,-10.091 1.105,-21.114 12.1569996,-24.32 4.917,-0.948 13.568,-5.59 3.125,-2.268 -9.3639996,6.866 -10.2659996,-6.24 -0.666,-7.07 6.552,-0.869 8.964,-6.23 6.721,-11.056 -7.036,-4.59 17.055,-9.626 4.932,-16.473 -12.62,-13.6200005 17.66,-16.2420005 10.188,-0.771 -1.786,11.895 21.166,-2.1850005 15.836,11.554 5.415,6.599 20.272,1.505 19.899,10.757 7.886,0.542 10.593,7.173 17.988,7.683 7.676998,3.466 21.579998,6.192 24.187998,14.837 -7.61,6.023 -25.226998,-12.443 -26.077998,4.232 2.302,24.638 1.715,50.016998 10.725998,73.477998 4.262,14.204 14.6,25.385 23.931,36.45 8.933,10.834 21.03,18.466 33.363,24.887 10.815,5.1 22.475,8.48 34.265,10.606 4.78,-3.656 13.221,-17.25 20.675,-11.522 0.36,6.449 -14.796,13.471 -0.711,12.758 8.278,-2.498 14.013,6.394 20.826,-1.629 6.278,7.436 26.09,-4.747 21.625,10.45 -6.042,3.898 -14.85,1.543 -20.898,6.906 -9.972,-4.983 -17.912,4.453 -28.956,3.263 -12.26,2.196 -24.738,3.08 -37.167,3.098 -20.396,-1.609 -41.222,-2.288 -60.624,-9.39 -10.932998,-3.176 -21.597998,-9.402 -31.204998,-15.628 z m 17.224,7.468 c 10.671998,4.61 21.108998,9.475 32.806998,10.946 18.558,2.577 37.723,6.552 56.346,2.93 -8.428,-3.805 -17.145,1.478 -25.541,-2.72 -10.07,2.164 -20.878,-0.556 -31.12,-1.897 -11.64,-5.184 -24.206,-8.748 -35.106998,-15.485 -13.628,-4.975 7.043,6.383 10.723998,7.306 8.514,4.83 -9.364998,-2.48 -11.889998,-4.487 -7.132,-4.002 -8.04,-3.165 -0.704,0.896 1.477,0.864 2.936,1.773 4.485,2.511 z m -20.31,-14.353 c 10.345,3.832 -0.046,-7.272 -4.78,-6.63 -2.1,-3.643 -8.023,-5.945 -3.845,-7.9 -7.513,2.61 -7.873,-9.92 -11.403,-8.127 -7.952,-2.511 -3.094,-11.405 -12.569,-16.87 -0.864,-5.756 -9.41,-10.745 -12.13,-19.423 -1.203,-4.446 -9.658,-17.203 -4.466,-5.33 4.42,11.43 12.195,21.227 18.669,31.003 5.022,9.31 10.96,19.048 20.108,24.855 3.087,2.962 6.061,7.493 10.415,8.422 z m -29.791,-32.715 c 0.358,-1.563 1.89,3.38 0,0 z m 42.183,37.305 c 2.288,-1.026 -3.296,-1.294 0,0 z m 5.61,2.048 c -0.581,-2.826 -2.563,1.582 0,0 z m 7.03,2.93 c 3.340998,-3.187 -5.16,-2.01 0,0 z m 12.044998,6.713 c 2.033,-3.001 -6.507,-1.13 0,0 z m -23.127998,-16.123 c 5.19,-3.362 -6.716,-0.047 0,0 z m 5.27,2.628 c -0.151,-1.773 -1.877,0.797 0,0 z m 26.344998,16.445 c 4.237,2.675 24.738,5.859 11.902,1.098 -2.153,0.452 -23.803,-6.127 -11.902,-1.098 z m -41.822998,-32.577 c -0.412,-1.777 -6.58,-1.968 0,0 z m 12.26,7.155 c 3.197,-2.23 -6.624,-1.72 0,0 z m 10.318,6.323 c 4.583998,-1.726 -7.427,-1.733 0,0 z m -27.574,-18.912 c 4.97,3.811 20.05,0.49 7.611,-2.275 -5.656,-3.015 -18.407,-5.08 -9.715,1.818 z m 34.565998,21.095 c 2.072,-3.525 -8.684998,-2.015 0,0 z m -10.502998,-8.345 c 12.149998,3.434 -10.22,-7.69 -3,-1.268 l 1.603,0.726 z m 21.057998,12.17 c 11.508,0.11 -10.398,-1.588 0,0 z m -49.546998,-31.578 c -0.452,-2.144 -2.838,0.178 0,0 z m 69.012998,42.498 c 0.307,-3.87 -3.754,2.884 0,0 z m -49.369998,-30.472 c -0.7,-2.04 -3.596,-0.085 0,0 z m -18.552,-13.372 c 6.606,-0.398 -9.05,-2.91 0,0 z m -21.978,-14.204 c -0.823,-3.17 -7.186,-5.694 0,0 z m 57.694998,36.614 c -1.21,-1.381 -0.57,0.3 0,0 z m 35.905,22.037 c -0.11,-2.113 -1.955,0.796 0,0 z m -39.083,-25.32 c 0.648,-2.72 -5.635998,-0.825 0,0 z m -26.751998,-16.956 c 4.918,-0.524 -7.88,-3.322 0,0 z m 45.251998,28.119 c 7.663,-3.035 -7.468,-1.479 0,0 z m -23.534998,-15.975 c 8.826998,1.136 -10.508,-6.01 -1.942,-0.642 z m 30.679998,18.864 c 8.247,-4.923 5.527,11.542 13.989,1.393 8.343,-6.094 -7.207,7.533 3.073,1.086 7.441,-4.977 18.426,2.36 25.365,4.747 4.988,-0.242 9.841,4.316 14.96,1.542 9.848,-2.655 -19.263,-3.935 -11.633,-8.638 -9.01,2.624 -15.666,-3.125 -20.1,-8.899 -10.11,-2.335 -21.795,-7.5 -26.843,-16.452 -2.06,-3.354 2.97,0.478 -1.778,-5.015 -6.088,-5.415 -9.128,-11.569 -13.216,-18.153 -4.885,-2.603 -5.46,-10.273 -5.951,-0.254 0.04,-6.324 -5.897998,-10.581 -7.349998,-8.815 -0.026,-6.089 6.356998,-3.035 1.89,-7.54 -0.96,-6.311 -4.126,-12.888 -5.075,-20.016 -1.476,-3.433 -0.21,-10.789 -5.047,-3.015 -1.76,8.22 -0.582,-10.096 2.158,-4.06 3.596,-6.16 -1.296,-5.435 -1.492,-4.584 2.342,-5.198 1.485,-12.574998 -0.614,-9.762998 1.249,-5.513 1.975,-20.284 -1.863,-17.662 2.327,-5.767 4.414,-26.38 -5.697,-18.518 -4.093,0.058 -11.187,1.485 -14.535,3.152 10.508,5.794 -1.06,2.092 -5.343,1.17 -0.556,5.362 -4.793,3.047 -10.09,3.099 8.462,1.046 -4.12,8.65 -8.964,5.696 -6.304,3.008 5.434,10.528 0.124,12.855 0.655,3.499 -9.652,-1.267 -8.847,6.828 -6.115,-2.578 -0.837,9.598998 2.223,5.48 10.404,2.817998 7.324,9.232998 7.585,15.332998 -1.694,3.55 -8.37,-8.35 -1.485,-7.8 -5.434,-8.822998 -6.008,-3.192 -10.521,0.908 -1.046,0.295 11.509,5.832 3.63,8.566 6.931,1.073 7.134,7.141 8.547,10.98 4.165,4.34 3.307,-4.795 8.298,0.425 -3.16,-4.65 -16.715,-13.1 -5.8,-10.39 -0.06,-4.676 -1.976,-8.45 1.372,-8.359 3.316,-5.996 -3.472,14.792 3.996,7.168 2.065,-0.902 2.583,-6.003 6.297,0.484 5.394,5.31 1.949,9.153 -5.663,4.289 1.36,4.623 10.181,6.27 8.52,13.497 1.758,6.356 4.218,4.014 6.362,3.648 1.68,6.173 2.637,1.635 2.715,-1.308 7.696,1.65 5.891,6.2 8.303,9.378 5.303,2.392 -7.591,-16.224 1.512,-5.598 9.578,8.651 3.596,12.26 -5.002,10.875 5.44,-0.44 7.191,7.357 14,7.082 6.205,2.955 10.41,14.294 -0.288,9.572 -3.708,-3.348 -16.846,-7.474 -6.114,-1.111 9.9,4.59 17.772998,7.33 27.325998,13.092 6.834,4.878 9.788,10.467 12.378,11.574 -5.747,2.745 -17.314,-2.191 -8.723,-3.701 -5.362,-0.975 -11.39,-3.688 -6.258,2.988 4.368,3.649 15.465,3.262 17.46,3.674 -1.687,3.715 -4.583,4.01 0.065,4.297 -5.186,2.766 1.668,3.198 2.145,4.773 z m -10.606,-29.955 c -3.158,-3.302 -3.975,-9.481 -0.562,-4.108 1.753,0.707 5.605,10.105 0.562,4.108 z m 34.547,21.945 c 1.968,-0.13 0.058,1.496 0,0 z m -39.528,-30.04 c -0.126,-4.99 1.136,3.85 0,0 z m -3.434,-4.617 c -3.975,-7.67 5.002,2.171 0,0 z m -41.614998,-28.719 c 2.335,-0.623 1.151,3.987 0,0 z m 33.121,17.949 c 1.431998,-5.382 1.680998,4.513 0,0 z m -23.397,-16.27 c -1.647,-2.968 3.447,2.787 0,0 z m 20.075,6.435 c -3.76,-8.422 2.668,-4.604 0.837,1.38 z m -34.624,-23.09 c -1.68,-2.765 -4.46,-10.874 -3.564,-13.351 0.804,4.034 8.573,17.354 3.805,5.519 -5.263,-9.919998 6.298,3.216 7.488,5.695 0.556,2.459 -3.25,-0.673 -0.674,5.1 -4.701,-6.572 -2.773,3.63 -7.055,-2.963 z m -10.698,-7.375 c 0.438,-6.428 2.446,4.407 0,0 z m 4.813,1.66 c 2.295,-4.85 3.89,6.762 0,0 z m -11.581,-8.957 c -3.983,-3.963998 -6.867,-7.611998 0.189,-2.459998 2.714,0.105 -6.041,-8.297 0.655,-2.668 7.035,1.283 3.471,11.542998 -0.844,5.127998 z m 6.081,-0.157 c 2.316,-2.294998 1.23,2.256 0,0 z m 3.747,1.196 c -3.512,-6.571998 4.257,2.76 0,0 z m -7.441,-7.106998 c -11.58,-10.314 14.549,5.386998 1.89,1.908 z m 33.185,19.275998 c -5.015,-3.002 -1.334,-21.152998 0.38,-8.742 4.872,-1.577 -0.27,6.415 3.36,6.336 -0.568,5.04 -2.196,6.854 -3.74,2.406 z m 12.274,7.258 c 0.49,-5.472 1.033,3.742 0,0 z m -2.131,-2.112 c 0.549,-2.334 0.052,2.753 0,0 z m -41.06,-27.809998 c -7.44,-10.267 21.625,10.382998 4.768,2.603 -1.76,-0.464 -3.884,-0.628 -4.768,-2.603 z m 23.639,12.529998 c -0.705,-8.644998 1.57,1.43 0,0 z m 17.943,11.513 c 1.386,-4.923 0.106,3.258 0,0 z m -40.437,-27.959998 c 4.421,-0.948 18.322,7.762 5.558,2.485 -1.418,-1.57 -4.446,-0.857 -5.558,-2.486 z m 37.971,18.923998 c 0.473,-8.839998 2.644,-5.277 0.02,1.269 l -0.02,-1.27 z m -34.682,-22.002998 c 1.804,-2.643 -4.788,-11.947 0.947,-3.336 2.48,1.968 7.173,3.296 3.028,4.126 6.519,5.749 -1.588,1.557 -3.975,-0.79 z m 32.805,19.243998 c 1.244,-10.069998 1.1,5.898 0,0 z m -36.572,-28.542998 c 1.38,-0.59 0.732,1.836 0,0 z m 8.56,5.094 c 2.202,-4.624 4.06,5.152 0,0 z m 24.135,13.424 c -0.02,-1.772 0.457,2.583 0,0 z m -1.4,-3.092 c -3.348,-8.266 3.12,4.374 0,0 z m -2.054,-5.422 c -0.56,-3.414 1.91,4.29 0,0 z m 3.348,-5.44 c -2.301,-4.049 2.905,-17.852 3.487,-9.292 -2.427,6.67 -0.7,10.398 0.986,1.452 3.127,-7.036 -0.673,13.896 -4.473,7.84 z m 3.44,-20.526 c 1.002,-1.23 0.223,1.483 0,0 z m -5.746,113.209998 c -1.361,-1.19 0.175,0.753 0,0 z m 11.835,5.984 c 6.584,1.694 6.552,-1.021 0.6,-1.832 -3.197,-2.974 -13.3,-6.133 -4.256,-0.366 0.596,1.518 2.486,1.478 3.656,2.198 z m -23.37,-15.525 c 3.622,2.709 13.659,7.664 5.165,1.035 2.864,-3.33 -5.48,-5.101 -2.713,-7.33 -7.043,-4.311 -5.56,-3.925 -0.621,-3.787 -8.462,-3.787 1.222,-3.499 0.765,-5.44 -3.263,-0.642 -16.211,-5.756 -8.593,0.418 -7.742,-3.944 -1.845,1.471 -4.185,0.902 -7.92,-2.158 7.05,6.03 -1.256,3.996 4.539,3.596 12.222,9.22 1.916,3.805 -1.353,1.955 7.377,4.918 9.521,6.401 z m 12.377,7.115 c 15.047,4.846 -7.383,-5.931 0,0 z m 63.363998,38.384 c 0.196,-2.988 -2.054,2.55 0,0 z m 6.513,2.74 c 3.472,-3.36 0.144,5.362 5.754,-0.823 0.058,-4.428 -0.17,-7.042 -6.447,-1.662 -1.734,0.962 -2.504,5.035 0.693,2.486 z m -103.381998,-64.924 c -1.067,-4.192 -7.475,-4.174 0,0 z m 6.95,4.556 c -2.583,-4.282 -9.214,-3.877 0,0 z m 39.568,23.861 c 3.866,3.434 17.740998,2.518 4.69,0.426 -1.93,-2.858 -12.268,-2.171 -4.69,-0.426 z m 54.384998,33.593 c 5.944,-4.99 -5.76,2.223 0,0 z m 12.366,8.493 c 0.038,-1.602 -2.563,0.7 0,0 z m 0.02,-2.243 c 6.584,-6.97 -6.376,0.412 0,0 z m -130.395998,-82.582 c -5.61,-8.004 -3.485,-11.601 -8.899,-18.14 -1.028,-5.002 -9.285,-16.340998 -4.27,-4.329 4.59,7.03 5.95,17.91 13.17,22.469 z m 128.328998,80.365 c 12.118,-7.828 -4.969,-3.407 0,0 z m 9.247,3.622 c 6.068,-5.206 -3.839,-1.086 0,0 z m -122.529998,-78.515 c 1.734,-2.583 -4.485,-0.333 0,0 z m 120.599998,76.043 c 5.872,-3.785 -1.353,-3.204 -1.065,0.346 z m -79.697998,-50.233 c -0.202,-2.563 -3.105,0.216 0,0 z m 4.924,2.832 c -1.569,-3.165 -2.406,0.497 0,0 z m 84.196998,49.959 c 7.526,-5.429 -4.557,-1.041 -1.576,1.033 z m -2.883,-1.393 c 6.133,-5.134 -6.468,2.275 0,0 z m 14.724,9.801 c 4.115,-2.753 -5.001,-0.889 0,0 z m -138.089998,-88.872 c 5.512,1.235 22.042,13.581 12.293,0.857 -4.995,-1.478 -2,-13.687 -7.094,-11.529 3.42,5.715 2.81,8.14 -4.37,4.545 -9.016,-4.408 -5.067,2.178 -3.3,3.996 -2.408,0.549 3.177,2.086 2.47,2.13 z m -25.13,-19.845 c 0.987,-4.088 -9.096,-22.468998 -4.76,-9.214 1.562,2.779 1.4,8.042 4.76,9.214 z m 46.126,28.437 c -2.844,-2.373 -0.137,-0.34 0,0 z m 6.99,1.63 c 0,-4.33 -7.728,-1.76 0,0 z m 60.617998,38.207 c -1.157,-2.957 -4.57,-0.066 0,0 z m 2.91,2.124 c -0.433,-1.654 -1.682,0.321 0,0 z m 24.024,15.138 c 2.309,-1.706 -2.884,-0.221 0,0 z m -128.118998,-82.332 c 6.61,-2.558 -7.083,-1.825 0,0 z m 95.847998,60.38 c -0.077,-4.276 -4.217,1.067 0,0 z m -98.457998,-66.469 c 4.244,-1.43 -3.93,-0.94 0,0 z m 12.32,5.97 c -0.073,-1.405 -1.301,0.537 0,0 z m 150.299998,92.168 c 5.46,-1.105 17.904,2.78 19.911,-1.444 -6.63,-0.164 -22.932,-4.683 -23.704,1.071 l 1.452,0.23 2.342,0.143 z m -146.383998,-91.18 c 0.1,-4.336 -3.38,-0.163 0,0 z m -32.392,-22.474998 c -1.471,-8.26 -5.598,-1.25 0,0 z m 7.722,1.941998 c 0.099,-2.654998 -7.07,-2.386998 0,0 z m 4.414,2.171 c -1.275,-1.034 -0.994,1.3 0,0 z m 27.784,17.819 c 1.309,-1.204 -3.099,-0.889 0,0 z m -30.72,-22.709998 c -0.751,-6.238 -8.952,-0.935 0,0 z m -15.845,-10.28 c -0.223,-2.877 -1.5439996,1.085 0,0 z m 2.36,-1.777 c -0.385,-3.415 -2.027,0.43 0,0 z m 13.015,7.767 c 5.506,-2.158 -10.026,-4.473 -1.125,-0.405 z M 200.34619,200.68955 c 3.524,-3.23 -4.473,-1 0,0 z m 21.049,10.907 c 1.413,-4.171 -3.558,0.55 0,0 z M 27.450192,86.249552 c 0.583,-4.04 -4.367,0.804 0,0 z m -18.5229996,-12.41 c -0.994,-5.702 -0.857,-15.714 8.6579996,-12.333 -12.6999996,2.524 8.795,15.79 6.081,5.315 5.342,0.263 10.45,-3.157 7.644,2.027 10.528,-1.157 17.82,-10.285 27.987,-9.003 7.918,-1.052 16.576,-1.844 25.11,-5.035 7.016,-0.504 13.77,-8.057 9.927,-12.536 -9.567,-0.81 -19.586,0.386 -30.159,2.492 -11.717,2.432 -22.362,7.061 -34.186,9.05 -11.529,1.55 2.315,4.263 -0.988,4.871 -6.01,2.086 7.174,3.492 -0.778,5.695 -4.91,-0.934 -10.024,-2.621 -7.925,-7.8 -11.0379996,1.438 -20.74199956,6.015 -12.0179996,17.249 l 0.648,0.006 z m 26.6079996,-13.55 c 2.583,-9.533 13.862,7.848 4.237,1.269 -1.145,-0.864 -3.042,-1.564 -4.237,-1.269 z m 0.502,-4.624 c 3.735,-2.778 1.982,1.564 0,0 z m 4.741,0.08 c 0.342,-4.388 10.863,2.321 1.734,1.576 l -1.734,-1.577 z m 6.487,-2.609 c 2.374,-2.774 0.688,2.458 0,0 z m 1.662,-1.111 c 3.949,-4.741 22.343,-3.029 8.879,-0.466 -3.61,-2.72 -6.375,1.602 -8.879,0.466 z m 24.01,-3.702 c -0.594,-12.955 11.934,4.597 0,0 z m 6.815,-0.04 c 2.49,-6.525 9.67,-2.621 1.157,-1.314 0.182,0.7 -0.255,3.375 -1.157,1.314 z m -54.987,34.618 c 7.44,-4.558 -7.9,-3.955 0,0 z m 5.505,1.524 c 2.61,-2.772 -5.676,-1.125 0,0 z m -16.216,-11.502 c 4.25,-3.27 -5.0349996,-1.242 0,0 z M 233.81819,210.40655 c 0.124,-3.793 -3.25,1.706 0,0 z m -22.331,-15.243 c 0.634,-4.36 -2.87,0.38 0,0 z m 28.471,16.715 c 5.945,0.02 18.014,-1.852 5.08,-1.845 -2.033,0.315 -11.828,0.25 -5.08,1.845 z M 35.110192,81.749552 c 4.813,-0.327 7.526,-5.304 -0.936,-5.022 -13.11,-1.353 11.567,4.493 -1.68,2.819 -1.778,1.177 2.51,2.53 2.616,2.203 z m 4.237,2.146 c -0.504,-3.087 -1.492,1.64 0,0 z m 5.028,-13.406 c 2.086,-2.59 -2.89,-0.693 0,0 z m -16.008,-26.75 c 8.593,-2.916 20.337,-6.199 24.392,1.44 -4.127,-4.963 -1.667,-9.855 2.23,-2.59 5.512,7.344 8.27,-3.341 4.687,-5.807 4.088,5.074 8.73,7.475 2.733,0.322 6.52,-7.841 -13.045,1.026 -17.491,0.934 -2.138,0.96 -22.089,5.087 -16.55,5.701 z m 5.035,-9.637 c 4.899,-3.694 16.943,2.203 9.214,-3.676 -0.758,-0.666 -16.922,4.46 -9.214,3.676 z m 17.859,0.738 c 5.728,0.144 -2.471,-7.703 4.355,-4.146 -1.118,-3.661 -7.951,-4.348 -11.292,-5.812 -1.89,3.348 3.843,10.004 6.937,9.958 z m -14.727,-16.211 c 1.982,-2.687 -3.478,1.367 0,0 z m 7.3,1.745 c 9.238,-1.222 -2.356,-3.975 -1.866,-0.097 l 1.865,0.097 z m -13.63,-10.6580005 c -6.507,-8.494 12.235,1.4260005 5.623,-7.468 -5.564,-4.426 -10.906,4.99 -5.623,7.468 z M 113.67419,54.673552 c 2.984,-5.285 -12.312,-7.128 -2.007,-1.872 0.948,0.315 0.734,2.237 2.007,1.872 z"
     id="path2"
     sodipodi:nodetypes="ccccccccccccccccccccccccccccccccccccccccccccccccccccccccccccccccccccccccccccccccccccccccccccccccccccccccccccccccccccccccccccccccccccccccccccccccccccccccccccccccccccccccccccccccccccccccccccccccccccccccccccccccccccccccccccccccccccccccccccccccccccccccccccccccccccccccccccccccccccccccccccccccccccccccccccccccccccccccccccccccccccccccccccccccccccccccccccccccccccccccccccccccccccccccccccccccccccccccccccccccccccccccccccccccccccccccccccccccccccccccccccccccccc" />
</svg>
